# xmcd
#
# Track frame offsets: 
#        150
#        27117
#        43137
#        65423
#        83384
#        104259
#        117709
#        132775
#        156537
#        175511
#        189681
#        211726
#        235563
#
# Disc length: 3364 seconds
#
# Revision: 0
# Processed by: cddbd v1.5.1PL2 Copyright (c) Steve Scherf et al.
# Submitted via: ExactAudioCopy v0.95b4
#
DISCID=a60d220d
DTITLE=Various Artist - Celtes
DYEAR=2006
DGENRE=Celtic
TTITLE0=Old Blind Dogs - Rolsin Castle
TTITLE1=Martyn Bennett - Tommy Smith - and Group - Karabach
TTITLE2=Bohinta - Belladonna
TTITLE3=Andreas Ljones Band - Ma lam
TTITLE4=Michael Mc Goldrick - The other's set - the Asphant-Hanley's R
TTITLE4=eel
TTITLE5=Gillian MacKenzie - Duthaich mhicaoidh
TTITLE6=The Lonely Strand Band - The wind that shakes the barley
TTITLE7=Altan - Ta mo chleamhnas a dheanamh
TTITLE8=Jayne Hockley and Taryn Fiebig - My lagan love
TTITLE9=Karan casey - Sliabh geal gCua
TTITLE10=Harem Scarem - Tibby dunbar
TTITLE11=Karen Matheson - An ataineachd ard (The suige of the sea)
TTITLE12=Andreas Ljones Band - Lullaby
EXTD=
EXTT0=
EXTT1=
EXTT2=
EXTT3=
EXTT4=
EXTT5=
EXTT6=
EXTT7=
EXTT8=
EXTT9=
EXTT10=
EXTT11=
EXTT12=
PLAYORDER=
